<?xml version="1.0" encoding="utf-8"?>
<!-- Svg Vector Icons : http://www.onlinewebfonts.com/icon -->
<!DOCTYPE svg PUBLIC "-//W3C//DTD SVG 1.1//EN" "http://www.w3.org/Graphics/SVG/1.1/DTD/svg11.dtd">
<svg version="1.1" xmlns="http://www.w3.org/2000/svg" xmlns:xlink="http://www.w3.org/1999/xlink" x="0px" y="0px" viewBox="0 0 1000 1000" enable-background="new 0 0 1000 1000" xml:space="preserve">
<metadata> Svg Vector Icons : http://www.onlinewebfonts.com/icon </metadata>
<g><path d="M990,500c0,270.2-219.8,490-490,490C229.8,990,10,770.2,10,500C10,229.8,229.8,10,500,10C770.2,10,990,229.8,990,500z M960.4,500c0-253.8-206.5-460.3-460.4-460.3C246.2,39.6,39.6,246.2,39.6,500c0,253.8,206.5,460.4,460.4,460.4C753.8,960.4,960.4,753.8,960.4,500z"/><path d="M817.5,667.3c-17.4,17.4-45.5,17.4-62.9,0L511.1,423.7L267.5,667.3c-17.4,17.4-45.5,17.4-62.9,0c-17.4-17.4-17.4-45.5,0-62.9l275-275c8.7-8.7,20-13,31.4-13c11.4,0,22.7,4.3,31.4,13l275,275C834.9,621.8,834.9,649.9,817.5,667.3z"/></g>
</svg>